<svg width="62" height="49" viewBox="0 0 62 49">
  <g id="document">
    <path d="M7.063,7.625 C7.063,7.625 55.000,7.625 55.000,7.625 C58.314,7.625 61.000,10.311 61.000,13.625 C61.000,13.625 61.000,42.000 61.000,42.000 C61.000,45.314 58.314,48.000 55.000,48.000 C55.000,48.000 7.063,48.000 7.063,48.000 C3.749,48.000 1.062,45.314 1.062,42.000 C1.062,42.000 1.062,13.625 1.062,13.625 C1.062,10.311 3.749,7.625 7.063,7.625 Z" id="path-1" class="cls-3" fill-rule="evenodd"/>
    <path d="M2.558,1.000 C2.558,1.000 8.763,1.000 20.558,1.000 C23.129,1.000 25.454,5.088 28.363,5.137 C43.795,5.397 60.201,5.137 60.201,5.137 C60.642,5.137 61.000,5.491 61.000,5.929 C61.000,5.929 61.000,14.874 61.000,14.874 C61.000,15.311 61.042,15.666 60.600,15.666 C60.600,15.666 1.453,15.666 1.453,15.666 C1.012,15.666 1.054,15.311 1.054,14.874 C1.054,14.874 1.054,2.495 1.054,2.495 C1.054,2.058 2.117,1.000 2.558,1.000 Z" id="path-2" class="cls-4" fill-rule="evenodd"/>
  </g>
</svg>