<?xml version="1.0" encoding="utf-8"?>
<!-- Generator: Adobe Illustrator 16.0.4, SVG Export Plug-In . SVG Version: 6.00 Build 0)  -->
<!DOCTYPE svg PUBLIC "-//W3C//DTD SVG 1.1//EN" "http://www.w3.org/Graphics/SVG/1.1/DTD/svg11.dtd">
<svg version="1.1" id="Layer_1" xmlns="http://www.w3.org/2000/svg" xmlns:xlink="http://www.w3.org/1999/xlink" x="0px" y="0px"
	 width="22.741px" height="20.947px" viewBox="0 0 22.741 20.947" enable-background="new 0 0 22.741 20.947" xml:space="preserve">
<g>
	<path fill="#93989A" d="M6.569,16.207c-0.158,0.152-0.403,0.152-0.562,0l-5.693-5.464c-0.158-0.152-0.158-0.387,0-0.54L6.007,4.74
		c0.159-0.152,0.404-0.152,0.562,0L7.18,5.327c0.159,0.152,0.159,0.387,0,0.539l-4.802,4.608l4.802,4.608
		c0.159,0.152,0.159,0.387,0,0.539L6.569,16.207z M9.844,18.246c-0.061,0.2-0.282,0.317-0.477,0.259l-0.757-0.2
		c-0.207-0.059-0.329-0.27-0.268-0.469L12.897,2.7c0.061-0.199,0.281-0.316,0.477-0.258l0.757,0.199
		c0.207,0.059,0.329,0.27,0.268,0.469L9.844,18.246z M16.733,16.207c-0.159,0.152-0.404,0.152-0.562,0L15.56,15.62
		c-0.158-0.152-0.158-0.387,0-0.539l4.802-4.608L15.56,5.866c-0.158-0.152-0.158-0.387,0-0.539l0.611-0.586
		c0.158-0.152,0.403-0.152,0.562,0l5.693,5.463c0.158,0.152,0.158,0.387,0,0.54L16.733,16.207z"/>
</g>
<g>
</g>
<g>
</g>
<g>
</g>
<g>
</g>
<g>
</g>
<g>
</g>
<g>
</g>
<g>
</g>
<g>
</g>
<g>
</g>
<g>
</g>
<g>
</g>
<g>
</g>
<g>
</g>
<g>
</g>
</svg>
