<?xml version="1.0" encoding="utf-8"?>
<!-- Generator: Adobe Illustrator 16.0.4, SVG Export Plug-In . SVG Version: 6.00 Build 0)  -->
<!DOCTYPE svg PUBLIC "-//W3C//DTD SVG 1.1//EN" "http://www.w3.org/Graphics/SVG/1.1/DTD/svg11.dtd">
<svg version="1.1" id="Layer_1" xmlns="http://www.w3.org/2000/svg" xmlns:xlink="http://www.w3.org/1999/xlink" x="0px" y="0px"
	 width="135px" height="32.188px" viewBox="0 0 135 32.188" enable-background="new 0 0 135 32.188" xml:space="preserve">
<g>
	<path fill="#FFFFFF" d="M52.251,11.499c-1.147,0-2.082,0.177-2.776,0.526c-0.379,0.191-0.718,0.445-1.016,0.765V6.162h-2.682v19.55
		h2.607v-1.155c0.274,0.307,0.596,0.558,0.964,0.753c0.724,0.385,1.702,0.58,2.902,0.58c1.99,0,3.428-0.433,4.275-1.284
		c0.847-0.851,1.276-2.305,1.276-4.324v-3.162c0-2.029-0.429-3.489-1.276-4.339C55.679,11.93,54.241,11.499,52.251,11.499
		 M55.031,17.563v2.276c0,1.964-0.297,2.698-0.544,2.968c-0.348,0.379-1.148,0.58-2.311,0.58c-1.322,0-2.283-0.282-2.856-0.84
		c-0.571-0.554-0.861-1.482-0.861-2.758v-2.177c0-1.284,0.29-2.215,0.861-2.771c0.573-0.558,1.534-0.84,2.856-0.84
		c1.164,0,1.963,0.201,2.311,0.58C54.734,14.851,55.031,15.588,55.031,17.563"/>
	<path fill="#FFFFFF" d="M70.834,12.316c-0.404-0.299-0.99-0.508-1.79-0.635c-0.747-0.121-1.85-0.183-3.272-0.183
		c-1.896,0-3.209,0.258-4.015,0.788c-0.842,0.553-1.27,1.473-1.27,2.734v0.664h2.675l0.009-0.352
		c0.013-0.584,0.166-0.961,0.466-1.151c0.236-0.151,0.82-0.33,2.261-0.33c2.109,0,2.758,0.256,2.958,0.407
		c0.226,0.17,0.491,0.625,0.491,1.825v1.436c-0.277-0.199-0.601-0.355-0.969-0.47c-0.679-0.211-1.619-0.313-2.873-0.313
		c-1.2,0-2.096,0.057-2.743,0.176c-0.68,0.125-1.21,0.346-1.579,0.655c-0.431,0.363-0.744,0.851-0.928,1.446
		c-0.177,0.57-0.263,1.325-0.263,2.306c0,1.723,0.401,2.932,1.192,3.595c0.783,0.657,2.229,0.978,4.421,0.978
		c1.21,0,2.18-0.133,2.88-0.397c0.391-0.146,0.731-0.344,1.014-0.591l0.043,0.811h2.5v-9.68c0-1.139-0.086-1.933-0.263-2.423
		C71.599,13.098,71.283,12.666,70.834,12.316 M69.349,20.559v1.404c0,0.26-0.08,0.641-0.777,0.956
		c-0.606,0.276-1.516,0.417-2.698,0.417c-1.616,0-2.277-0.246-2.547-0.451c-0.365-0.276-0.55-0.886-0.55-1.807
		c0-0.795,0.172-1.326,0.509-1.577c0.253-0.189,0.871-0.415,2.371-0.415c1.352,0,2.339,0.138,2.933,0.409
		C69.109,19.732,69.349,20.071,69.349,20.559"/>
	<path fill="#FFFFFF" d="M85.308,17.755c-0.31-0.145-0.79-0.252-1.468-0.329c-0.641-0.072-1.53-0.131-2.646-0.173
		c-0.187-0.009-0.455-0.017-0.805-0.025c-1.612-0.04-2.235-0.199-2.464-0.32c-0.12-0.067-0.197-0.159-0.245-0.289
		c-0.034-0.096-0.092-0.35-0.092-0.979c0-0.5,0.078-1.148,0.447-1.395c0.194-0.129,0.79-0.344,2.611-0.344s2.582,0.165,2.898,0.305
		c0.381,0.167,0.552,0.441,0.552,0.89v0.487h2.695v-0.36c0-1.366-0.408-2.345-1.21-2.912c-0.773-0.547-2.161-0.813-4.24-0.813
		c-2.658,0-4.349,0.278-5.169,0.849c-0.85,0.592-1.28,1.699-1.28,3.292c0,0.963,0.115,1.69,0.354,2.221
		c0.247,0.552,0.664,0.991,1.23,1.303c0.272,0.157,0.9,0.346,3.359,0.415c0.816,0.025,1.462,0.051,1.943,0.076
		c1.585,0.082,2.068,0.314,2.214,0.445c0.168,0.15,0.367,0.527,0.367,1.471c0,0.773-0.154,1.286-0.458,1.526
		c-0.186,0.146-0.814,0.391-2.941,0.391c-1.81,0-2.558-0.223-2.864-0.41c-0.395-0.239-0.587-0.691-0.587-1.381v-0.662H74.79v0.714
		c0,1.55,0.438,2.646,1.297,3.259c0.833,0.594,2.437,0.884,4.899,0.884c1.164,0,2.091-0.042,2.753-0.124
		c0.713-0.087,1.221-0.236,1.551-0.449c0.689-0.421,1.178-0.924,1.451-1.49c0.272-0.56,0.404-1.339,0.404-2.382
		c0-1.026-0.134-1.797-0.412-2.359C86.451,18.505,85.969,18.057,85.308,17.755"/>
	<path fill="#FFFFFF" d="M99.446,21.085l-0.029,0.328c-0.066,0.74-0.289,1.255-0.665,1.53c-0.274,0.202-0.891,0.442-2.268,0.442
		H95.56c-1.524,0-2.144-0.32-2.396-0.588c-0.256-0.273-0.562-0.932-0.562-2.517c0-0.292,0.003-0.518,0.007-0.682
		c0.001-0.034,0.002-0.066,0.003-0.098l9.6-0.014v-2.369c0-2.047-0.437-3.513-1.299-4.355c-0.87-0.852-2.32-1.267-4.43-1.267H95.56
		c-2.101,0-3.544,0.415-4.411,1.267c-0.869,0.855-1.292,2.279-1.292,4.354v3.162c0,2.066,0.425,3.487,1.299,4.341
		c0.871,0.853,2.32,1.267,4.43,1.267h0.924c1.862,0,3.257-0.349,4.145-1.036c0.908-0.703,1.424-1.842,1.531-3.384l0.028-0.386
		L99.446,21.085L99.446,21.085z M99.453,17.037h-6.825V16.88c0-1.127,0.191-1.92,0.556-2.291c0.251-0.255,0.867-0.562,2.376-0.562
		h0.924c1.519,0,2.146,0.307,2.404,0.565c0.368,0.37,0.565,1.16,0.565,2.287V17.037L99.453,17.037z"/>
	<polygon fill="#F7844B" points="116.404,11.197 111.942,11.197 108.213,15.636 108.213,5.682 104.568,5.682 104.568,26.193 
		108.213,26.193 108.213,20.657 112.679,26.193 117.345,26.193 110.643,17.978 	"/>
	<rect x="117.593" y="5.682" fill="#F7844B" width="3.646" height="3.907"/>
	<rect x="117.593" y="11.197" fill="#F7844B" width="3.646" height="14.996"/>
	<path fill="#F7844B" d="M131.317,19.82v1.233c0,1.217-0.231,1.53-0.278,1.581c-0.041,0.045-0.301,0.272-1.312,0.272
		c-0.79,0-1.207-0.149-1.334-0.289c-0.069-0.075-0.293-0.41-0.293-1.564v-6.495h6.531v-3.362H128.1V8.198h-3.658v2.998h-1.633v3.362
		h1.634v6.216c0,2.022,0.358,3.421,1.098,4.274c0.759,0.876,2.045,1.321,3.821,1.321c2.219,0,3.683-0.404,4.475-1.234
		c0.782-0.818,1.164-2.245,1.164-4.362V19.82H131.317L131.317,19.82z"/>
	<path fill="#FFFFFF" d="M16.921,14.463c0.63-0.109,1.059-0.395,1.288-0.857c0.231-0.461,0.346-1.065,0.346-1.811
		c0-0.725-0.121-1.269-0.361-1.631c-0.182-0.229-0.444-0.384-0.789-0.468c-0.343-0.083-0.894-0.126-1.65-0.126h-5.158v4.945h5.109
		C16.292,14.512,16.698,14.496,16.921,14.463z"/>
	<g>
		<path fill="#FFFFFF" d="M36.735,0H3.159C1.414,0,0,1.413,0,3.156v25.876c0,1.742,1.414,3.156,3.158,3.156h33.577
			c1.744,0,3.158-1.414,3.158-3.156V3.156C39.894,1.413,38.48,0,36.735,0z M21.385,24.695c-0.844,0.743-2.316,1.112-4.414,1.112
			H6.862V6.381h9.748c2.249,0,3.754,0.407,4.514,1.221c0.778,0.699,1.164,1.977,1.164,3.833c0,1.466-0.268,2.545-0.803,3.236
			c-0.426,0.506-1.082,0.861-1.968,1.062v0.101c0.974,0.11,1.701,0.411,2.177,0.902c0.477,0.49,0.772,1.032,0.89,1.624
			c0.115,0.593,0.174,1.271,0.174,2.033C22.758,22.49,22.299,23.922,21.385,24.695z M31.253,25.807l-8.484-9.942l7.813-9.483h4.558
			l-7.855,9.505l8.66,9.921H31.253z"/>
	</g>
	<path fill="#FFFFFF" d="M16.376,17.365h-5.779v5.255h5.577c0.68,0,1.213-0.05,1.601-0.15c0.815-0.296,1.222-1.091,1.222-2.385
		c0-1.07-0.164-1.796-0.494-2.176C18.123,17.547,17.415,17.365,16.376,17.365z"/>
</g>
</svg>
