<?xml version="1.0" encoding="UTF-8" standalone="no"?>
<svg width="419px" height="114px" viewBox="0 0 419 114" version="1.1" xmlns="http://www.w3.org/2000/svg" xmlns:xlink="http://www.w3.org/1999/xlink">
    <!-- Generator: Sketch 41.2 (35397) - http://www.bohemiancoding.com/sketch -->
    <title>basekit-logo--white</title>
    <desc>Created with Sketch.</desc>
    <defs></defs>
    <g id="Page-1" stroke="none" stroke-width="1" fill="none" fill-rule="evenodd">
        <g id="Artboard-2" transform="translate(-59.000000, -29.000000)" fill="#FFFFFF">
            <g id="basekit-logo--white" transform="translate(59.000000, 29.000000)">
                <g id="LIGHT">
                    <path d="M134,0.674 L134,114 L0,114 L0,0.674 L134,0.674 Z M58.24,84 C68.48,84 73.76,77.6 73.76,69.52 C73.76,62.88 69.28,57.36 63.52,56.48 C68.56,55.44 72.72,50.88 72.72,44.24 C72.72,37.12 67.52,30.64 57.36,30.64 L29.28,30.64 L29.28,84 L58.24,84 Z M107.08,84 L84.44,55.68 L105.64,30.64 L91.64,30.64 L72.76,57 L76.92,62.56 L93.08,84 L107.08,84 Z M55.36,61.84 C59.76,61.84 62.16,64.56 62.16,67.92 C62.16,71.76 59.6,74 55.36,74 L40.64,74 L40.64,61.84 L55.36,61.84 Z M54.88,40.64 C58.72,40.64 61.12,42.96 61.12,46.24 C61.12,49.68 58.72,51.84 54.88,51.84 L40.64,51.84 L40.64,40.64 L54.88,40.64 Z" id="Shape"></path>
                    <g id="BaseKit" transform="translate(161.000000, 29.000000)">
                        <path d="M29.24,55 C39.48,55 44.76,48.6 44.76,40.52 C44.76,33.88 40.28,28.36 34.52,27.48 C39.56,26.44 43.72,21.88 43.72,15.24 C43.72,8.12 38.52,1.64 28.36,1.64 L0.28,1.64 L0.28,55 L29.24,55 Z M25.88,22.84 L11.64,22.84 L11.64,11.64 L25.88,11.64 C29.72,11.64 32.12,13.96 32.12,17.24 C32.12,20.68 29.72,22.84 25.88,22.84 Z M26.36,45 L11.64,45 L11.64,32.84 L26.36,32.84 C30.76,32.84 33.16,35.56 33.16,38.92 C33.16,42.76 30.6,45 26.36,45 Z" id="Shape"></path>
                        <path d="M84.12,55 L84.12,30.04 C84.12,18.92 76.04,15.4 67.16,15.4 C61.08,15.4 55,17.24 50.28,21.48 L54.28,28.6 C57.48,25.64 61.32,24.04 65.4,24.04 C70.52,24.04 73.88,26.6 73.88,30.52 L73.88,35.4 C71.32,32.36 66.84,30.68 61.64,30.68 C55.48,30.68 48.28,34.04 48.28,43.16 C48.28,51.8 55.48,55.96 61.64,55.96 C66.68,55.96 71.24,54.12 73.88,50.92 L73.88,55 L84.12,55 Z M65.72,49.08 C61.72,49.08 58.44,47 58.44,43.32 C58.44,39.64 61.72,37.48 65.72,37.48 C69,37.48 72.2,38.68 73.88,40.92 L73.88,45.72 C72.2,47.96 69,49.08 65.72,49.08 L65.72,49.08 Z" id="Shape"></path>
                        <path d="M105.64,55.96 C116.36,55.96 122.44,50.76 122.44,43.64 C122.44,28.04 99.48,32.84 99.48,27.16 C99.48,25 101.88,23.4 105.56,23.4 C110.28,23.4 114.68,25.48 117,27.88 L121.08,20.68 C117.24,17.64 112.04,15.4 105.56,15.4 C95.32,15.4 89.72,21.08 89.72,27.56 C89.72,42.76 112.6,37.56 112.6,43.88 C112.6,46.28 110.52,47.96 106.12,47.96 C101.32,47.96 95.64,45.32 92.76,42.6 L88.36,49.96 C92.44,53.72 98.92,55.96 105.64,55.96 L105.64,55.96 Z" id="Shape"></path>
                        <path d="M145.64,55.96 C151.64,55.96 157.72,54.12 161.56,50.6 L157,43.88 C154.52,46.28 150.04,47.64 146.76,47.64 C140.2,47.64 136.36,43.72 135.64,39 L164.36,39 L164.36,36.6 C164.36,24.04 156.6,15.4 145,15.4 C133.32,15.4 125,24.44 125,35.64 C125,48.04 133.88,55.96 145.64,55.96 L145.64,55.96 Z M154.6,31.96 L135.56,31.96 C135.96,28.12 138.68,23.72 145,23.72 C151.72,23.72 154.28,28.28 154.6,31.96 Z" id="Shape"></path>
                        <polygon id="Shape" points="215.24 55 192.6 26.68 213.8 1.64 199.8 1.64 180.92 25.4 180.92 1.64 169.56 1.64 169.56 55 180.92 55 180.92 38.6 185.08 33.56 201.24 55"></polygon>
                        <path d="M222.84,12.2 C226.2,12.2 228.92,9.48 228.92,6.12 C228.92,2.76 226.2,0.12 222.84,0.12 C219.56,0.12 216.84,2.76 216.84,6.12 C216.84,9.48 219.56,12.2 222.84,12.2 Z M227.96,55 L227.96,16.36 L217.8,16.36 L217.8,55 L227.96,55 Z" id="Shape"></path>
                        <path d="M248.6,55.96 C252.84,55.96 255.56,54.84 257.08,53.48 L254.92,45.72 C254.36,46.36 252.92,46.92 251.4,46.92 C249.16,46.92 247.88,45.08 247.88,42.6 L247.88,25.24 L255.72,25.24 L255.72,16.36 L247.88,16.36 L247.88,5.8 L237.72,5.8 L237.72,16.36 L231.32,16.36 L231.32,25.24 L237.72,25.24 L237.72,45.32 C237.72,52.28 241.48,55.96 248.6,55.96 Z" id="Shape"></path>
                    </g>
                </g>
            </g>
        </g>
    </g>
</svg>