<?xml version="1.0" standalone="no"?>
<!DOCTYPE svg PUBLIC "-//W3C//DTD SVG 1.1//EN" "http://www.w3.org/Graphics/SVG/1.1/DTD/svg11.dtd">
<svg width="135px" height="37px" viewBox="0 0 135 37" version="1.1" xmlns="http://www.w3.org/2000/svg" xmlns:xlink="http://www.w3.org/1999/xlink" xml:space="preserve" style="fill-rule:evenodd;clip-rule:evenodd;stroke-linejoin:round;stroke-miterlimit:1.41421;">
    <g id="LIGHT" transform="matrix(0.322905,0,0,0.322905,0.056897,-0.240232)">
        <path d="M134,0.674L134,114L0,114L0,0.674L134,0.674ZM59.24,84C69.48,84 74.76,77.6 74.76,69.52C74.76,62.88 70.28,57.36 64.52,56.48C69.56,55.44 73.72,50.88 73.72,44.24C73.72,37.12 68.52,30.64 58.36,30.64L30.28,30.64L30.28,84L59.24,84ZM106.08,84L83.44,55.68L104.64,30.64L90.64,30.64L71.76,57L75.92,62.56L92.08,84L106.08,84ZM56.36,61.84C60.76,61.84 63.16,64.56 63.16,67.92C63.16,71.76 60.6,74 56.36,74L41.64,74L41.64,61.84L56.36,61.84ZM55.88,40.64C59.72,40.64 62.12,42.96 62.12,46.24C62.12,49.68 59.72,51.84 55.88,51.84L41.64,51.84L41.64,40.64L55.88,40.64Z" style="fill:white;"/>
        <g id="BaseKit">
            <path d="M190.24,84C200.48,84 205.76,77.6 205.76,69.52C205.76,62.88 201.28,57.36 195.52,56.48C200.56,55.44 204.72,50.88 204.72,44.24C204.72,37.12 199.52,30.64 189.36,30.64L161.28,30.64L161.28,84L190.24,84ZM186.88,51.84L172.64,51.84L172.64,40.64L186.88,40.64C190.72,40.64 193.12,42.96 193.12,46.24C193.12,49.68 190.72,51.84 186.88,51.84ZM187.36,74L172.64,74L172.64,61.84L187.36,61.84C191.76,61.84 194.16,64.56 194.16,67.92C194.16,71.76 191.6,74 187.36,74Z" style="fill:white;fill-rule:nonzero;"/>
            <path d="M245.12,84L245.12,59.04C245.12,47.92 237.04,44.4 228.16,44.4C222.08,44.4 216,46.24 211.28,50.48L215.28,57.6C218.48,54.64 222.32,53.04 226.4,53.04C231.52,53.04 234.88,55.6 234.88,59.52L234.88,64.4C232.32,61.36 227.84,59.68 222.64,59.68C216.48,59.68 209.28,63.04 209.28,72.16C209.28,80.8 216.48,84.96 222.64,84.96C227.68,84.96 232.24,83.12 234.88,79.92L234.88,84L245.12,84ZM226.72,78.08C222.72,78.08 219.44,76 219.44,72.32C219.44,68.64 222.72,66.48 226.72,66.48C230,66.48 233.2,67.68 234.88,69.92L234.88,74.72C233.2,76.96 230,78.08 226.72,78.08Z" style="fill:white;fill-rule:nonzero;"/>
            <path d="M266.64,84.96C277.36,84.96 283.44,79.76 283.44,72.64C283.44,57.04 260.48,61.84 260.48,56.16C260.48,54 262.88,52.4 266.56,52.4C271.28,52.4 275.68,54.48 278,56.88L282.08,49.68C278.24,46.64 273.04,44.4 266.56,44.4C256.32,44.4 250.72,50.08 250.72,56.56C250.72,71.76 273.6,66.56 273.6,72.88C273.6,75.28 271.52,76.96 267.12,76.96C262.32,76.96 256.64,74.32 253.76,71.6L249.36,78.96C253.44,82.72 259.92,84.96 266.64,84.96Z" style="fill:white;fill-rule:nonzero;"/>
            <path d="M306.64,84.96C312.64,84.96 318.72,83.12 322.56,79.6L318,72.88C315.52,75.28 311.04,76.64 307.76,76.64C301.2,76.64 297.36,72.72 296.64,68L325.36,68L325.36,65.6C325.36,53.04 317.6,44.4 306,44.4C294.32,44.4 286,53.44 286,64.64C286,77.04 294.88,84.96 306.64,84.96ZM315.6,60.96L296.56,60.96C296.96,57.12 299.68,52.72 306,52.72C312.72,52.72 315.28,57.28 315.6,60.96Z" style="fill:white;fill-rule:nonzero;"/>
            <path d="M376.24,84L353.6,55.68L374.8,30.64L360.8,30.64L341.92,54.4L341.92,30.64L330.56,30.64L330.56,84L341.92,84L341.92,67.6L346.08,62.56L362.24,84L376.24,84Z" style="fill:white;fill-rule:nonzero;"/>
            <path d="M383.84,41.2C387.2,41.2 389.92,38.48 389.92,35.12C389.92,31.76 387.2,29.12 383.84,29.12C380.56,29.12 377.84,31.76 377.84,35.12C377.84,38.48 380.56,41.2 383.84,41.2ZM388.96,84L388.96,45.36L378.8,45.36L378.8,84L388.96,84Z" style="fill:white;fill-rule:nonzero;"/>
            <path d="M409.6,84.96C413.84,84.96 416.56,83.84 418.08,82.48L415.92,74.72C415.36,75.36 413.92,75.92 412.4,75.92C410.16,75.92 408.88,74.08 408.88,71.6L408.88,54.24L416.72,54.24L416.72,45.36L408.88,45.36L408.88,34.8L398.72,34.8L398.72,45.36L392.32,45.36L392.32,54.24L398.72,54.24L398.72,74.32C398.72,81.28 402.48,84.96 409.6,84.96Z" style="fill:white;fill-rule:nonzero;"/>
        </g>
    </g>
</svg>
