<?xml version="1.0" standalone="no"?>
<!DOCTYPE svg PUBLIC "-//W3C//DTD SVG 1.1//EN" "http://www.w3.org/Graphics/SVG/1.1/DTD/svg11.dtd">
<svg width="17px" height="17px" version="1.1" xmlns="http://www.w3.org/2000/svg" xmlns:xlink="http://www.w3.org/1999/xlink" xml:space="preserve" style="fill-rule:evenodd;clip-rule:evenodd;stroke-linejoin:round;stroke-miterlimit:1.41421;">
    <g>
        <path id="Layer1" d="M17,2.92703C16.5182,3.63177 15.9357,4.23223 15.2525,4.72843C15.2597,4.8291 15.2633,4.98012 15.2633,5.18147C15.2633,6.11633 15.1267,7.04939 14.8534,7.98065C14.5802,8.91191 14.1649,9.80542 13.6076,10.6612C13.0502,11.5169 12.3868,12.2738 11.6174,12.9318C10.8479,13.5898 9.92026,14.1147 8.83439,14.5067C7.74852,14.8986 6.58714,15.0945 5.35025,15.0945C3.40144,15.0945 1.61802,14.5732 -1.77636e-15,13.5305C0.251692,13.5592 0.532149,13.5736 0.841371,13.5736C2.45939,13.5736 3.90123,13.0774 5.16688,12.085C4.4118,12.0706 3.73583,11.8387 3.13896,11.3893C2.54209,10.9398 2.13219,10.3663 1.90926,9.66878C2.14657,9.70474 2.36591,9.72272 2.56726,9.72272C2.87648,9.72272 3.18211,9.68317 3.48414,9.60406C2.67872,9.43866 2.01174,9.03776 1.48319,8.40133C0.954632,7.76491 0.690355,7.02602 0.690355,6.18465L0.690355,6.1415C1.17936,6.41476 1.70431,6.56218 2.26523,6.58376C1.79061,6.26734 1.41307,5.85385 1.13261,5.34328C0.852157,4.8327 0.711929,4.27898 0.711929,3.68211C0.711929,3.04928 0.870135,2.4632 1.18655,1.92386C2.05668,2.99535 3.11559,3.8529 4.36326,4.49651C5.61093,5.14012 6.9467,5.49789 8.37056,5.5698C8.31303,5.29653 8.28426,5.03046 8.28426,4.77157C8.28426,3.80795 8.62405,2.98636 9.30362,2.30679C9.98319,1.62722 10.8048,1.28744 11.7684,1.28744C12.7752,1.28744 13.6237,1.65419 14.3141,2.38769C15.0979,2.23668 15.835,1.95622 16.5254,1.54632C16.2593,2.37331 15.7487,3.01333 14.9937,3.46637C15.6624,3.39446 16.3312,3.21468 17,2.92703Z" style="fill:rgb(141,145,147);fill-rule:nonzero;"/>
    </g>
</svg>
